<?xml version="1.0" standalone="no"?>
<!DOCTYPE svg PUBLIC "-//W3C//DTD SVG 20010904//EN"
 "http://www.w3.org/TR/2001/REC-SVG-20010904/DTD/svg10.dtd">
<svg version="1.0" xmlns="http://www.w3.org/2000/svg"
 width="16.000000pt" height="16.000000pt" viewBox="0 0 16.000000 16.000000"
 preserveAspectRatio="xMidYMid meet">
<metadata>
Created by potrace 1.11, written by Peter Selinger 2001-2013
</metadata>
<g transform="translate(0.000000,16.000000) scale(0.002286,-0.002286)"
fill="#000000" stroke="none">
<path d="M467 6533 c-4 -3 -7 -1371 -7 -3040 l0 -3033 3040 0 3040 0 0 3040 0
3040 -3033 0 c-1669 0 -3037 -3 -3040 -7z m1403 -933 l0 -470 -470 0 -470 0 0
470 0 470 470 0 470 0 0 -470z m1400 0 l0 -470 -465 0 -465 0 0 470 0 470 465
0 465 0 0 -470z m1390 0 l0 -470 -460 0 -460 0 0 470 0 470 460 0 460 0 0
-470z m1410 0 l0 -470 -470 0 -470 0 0 470 0 470 470 0 470 0 0 -470z m-4200
-1405 l0 -465 -470 0 -470 0 0 465 0 465 470 0 470 0 0 -465z m1400 0 l0 -465
-465 0 -465 0 0 465 0 465 465 0 465 0 0 -465z m1390 0 l0 -465 -460 0 -460 0
0 465 0 465 460 0 460 0 0 -465z m1410 0 l0 -465 -470 0 -470 0 0 465 0 465
470 0 470 0 0 -465z m-4200 -1395 l0 -460 -470 0 -470 0 0 460 0 460 470 0
470 0 0 -460z m1400 0 l0 -460 -465 0 -465 0 0 460 0 460 465 0 465 0 0 -460z
m1390 0 l0 -460 -460 0 -460 0 0 460 0 460 460 0 460 0 0 -460z m1410 0 l0
-460 -470 0 -470 0 0 460 0 460 470 0 470 0 0 -460z m-4200 -1400 l0 -470
-470 0 -470 0 0 470 0 470 470 0 470 0 0 -470z m1400 0 l0 -470 -465 0 -465 0
0 470 0 470 465 0 465 0 0 -470z m1390 0 l0 -470 -460 0 -460 0 0 470 0 470
460 0 460 0 0 -470z m1410 0 l0 -470 -470 0 -470 0 0 470 0 470 470 0 470 0 0
-470z"/>
</g>
</svg>
